# xmcd CD database file generated by LOLA_Freedb v0.9beta0
#
# Track frame offsets:
#      150
#      19035
#      41330
#      60287
#      79887
#      99667
#      122356
#      128465
#      137480
#      156099
#      166773
#      179487
#      186729
#      194208
#      203608
#      209158
#      218571
#      238206
#      259477
#      270982
#      285539
#      295881
#      312654
#
# Disc length: 4366 seconds
#
# Revision: 0
# Processed by: cddbd v1.5.2PL0 Copyright (c) Steve Scherf et al.
# Submitted via: LOLA_Freedb v0.9beta0
#
DISCID=5a110c17
DTITLE=Bruno Beulens - Chambre De Bonne
DYEAR=2000
DGENRE=
TTITLE0=Bruno Beulens - L'Amour C'est Delicat
TTITLE1=Bruno Beulens - Dany Song
TTITLE2=Bruno Beulens - Track Bob
TTITLE3=Bruno Beulens - Ange
TTITLE4=Bruno Beulens - Tu Trouve Pas ?
TTITLE5=Bruno Beulens - Llorendo
TTITLE6=Bruno Beulens - Hello Miles
TTITLE7=Bruno Beulens - Coté Jardin
TTITLE8=Bruno Beulens - Lotus Feet
TTITLE9=Bruno Beulens - Seduit-Moi
TTITLE10=Bruno Beulens - Somewhere Someone
TTITLE11=Bruno Beulens - Napalm
TTITLE12=Bruno Beulens - Madame Rose Et Bleu
TTITLE13=Bruno Beulens - Urban Bulerias
TTITLE14=Bruno Beulens - Paco Drums is
TTITLE15=Bruno Beulens - Whole Lotta Love
TTITLE16=Bruno Beulens - Que Je T'Aime
TTITLE17=Bruno Beulens - Le Coté Humain De La Chose
TTITLE18=Bruno Beulens - Laisse La Porte Fermer
TTITLE19=Bruno Beulens - Blues Tu Nous Blues
TTITLE20=Bruno Beulens - Miss Celies Bues
TTITLE21=Bruno Beulens - Café La Savoie
TTITLE22=
EXTD=
EXTT0=
EXTT1=
EXTT2=
EXTT3=
EXTT4=
EXTT5=
EXTT6=
EXTT7=
EXTT8=
EXTT9=
EXTT10=
EXTT11=
EXTT12=
EXTT13=
EXTT14=
EXTT15=
EXTT16=
EXTT17=
EXTT18=
EXTT19=
EXTT20=
EXTT21=
EXTT22=
PLAYORDER=
